<svg width="28" height="23" viewBox="0 0 28 23" fill="none" xmlns="http://www.w3.org/2000/svg">
<g clip-path="url(#clip0_60_93)">
<path d="M25.6747 1.38477H1.29971C0.781158 1.38477 0.362213 1.80371 0.362213 2.32227V21.0723C0.362213 21.5908 0.781158 22.0098 1.29971 22.0098H25.6747C26.1933 22.0098 26.6122 21.5908 26.6122 21.0723V2.32227C26.6122 1.80371 26.1933 1.38477 25.6747 1.38477ZM24.5028 4.63086V19.9004H2.47159V4.63086L1.66299 4.00098L2.81436 2.52148L4.06827 3.49707H22.9091L24.163 2.52148L25.3144 4.00098L24.5028 4.63086ZM22.9091 3.49414L13.4872 10.8184L4.06534 3.49414L2.81143 2.51855L1.66006 3.99805L2.46866 4.62793L12.4765 12.4092C12.7643 12.6328 13.1184 12.7542 13.4828 12.7542C13.8473 12.7542 14.2014 12.6328 14.4892 12.4092L24.5028 4.63086L25.3114 4.00098L24.1601 2.52148L22.9091 3.49414Z" fill="#EF2779"/>
</g>
<defs>
<clipPath id="clip0_60_93">
<rect width="27" height="22" fill="white" transform="translate(0.362213 0.697266)"/>
</clipPath>
</defs>
</svg>
