<svg width="27" height="33" viewBox="0 0 27 33" fill="none" xmlns="http://www.w3.org/2000/svg">
<g clip-path="url(#clip0_60_81)">
<path d="M13.3621 19.8639C16.8549 19.8639 19.6954 17.0234 19.6954 13.5306C19.6954 10.0378 16.8549 7.19727 13.3621 7.19727C9.86922 7.19727 7.02872 10.0378 7.02872 13.5306C7.02872 17.0234 9.86922 19.8639 13.3621 19.8639ZM13.3621 10.3639C15.1085 10.3639 16.5287 11.7842 16.5287 13.5306C16.5287 15.277 15.1085 16.6973 13.3621 16.6973C11.6156 16.6973 10.1954 15.277 10.1954 13.5306C10.1954 11.7842 11.6156 10.3639 13.3621 10.3639Z" fill="#EF2779"/>
<path d="M12.1109 32.2359C12.3788 32.4273 12.6999 32.5302 13.0292 32.5302C13.3585 32.5302 13.6796 32.4273 13.9475 32.2359C14.4289 31.8955 25.7418 23.7271 25.6959 13.5304C25.6959 6.54635 20.0133 0.86377 13.0292 0.86377C6.04512 0.86377 0.362536 6.54635 0.362536 13.5225C0.316619 23.7271 11.6295 31.8955 12.1109 32.2359ZM13.0292 4.03044C18.2685 4.03044 22.5292 8.29119 22.5292 13.5384C22.5625 20.5652 15.5815 26.8748 13.0292 28.9442C10.4785 26.8732 3.49595 20.562 3.5292 13.5304C3.5292 8.29119 7.78995 4.03044 13.0292 4.03044Z" fill="#EF2779"/>
</g>
<defs>
<clipPath id="clip0_60_81">
<rect width="26" height="32" fill="white" transform="translate(0.362213 0.697266)"/>
</clipPath>
</defs>
</svg>
