<svg version="1.1" xmlns="http://www.w3.org/2000/svg" xmlns:xlink="http://www.w3.org/1999/xlink" width="161" height="169"><g transform="translate(-161,-96)"><g data-paper-data="{&quot;isPaintingLayer&quot;:true}" fill="none" fill-rule="nonzero" stroke="none" stroke-width="1" stroke-linecap="butt" stroke-linejoin="miter" stroke-miterlimit="10" stroke-dasharray="" stroke-dashoffset="0" font-family="none" font-weight="none" font-size="none" text-anchor="none" style="mix-blend-mode: normal"><path d="M161.5,100.5c0,-2.20914 1.79086,-4 4,-4h8c2,0 3,1 4,2l4,4c1,1 2,2 4,2h12c2,0 3,-1 4,-2l4,-4c1,-1 2,-2 4,-2h108c2.20914,0 4,1.79086 4,4v40c0,2.20914 -1.79086,4 -4,4h-92c-2,0 -3,1 -4,2l-4,4c-1,1 -2,2 -4,2h-12c-2,0 -3,-1 -4,-2l-4,-4c-1,-1 -2,-2 -4,-2h-8c-2.20914,0 -4,1.79086 -4,4v16c0,2.20914 1.79086,4 4,4h8c2,0 3,1 4,2l4,4c1,1 2,2 4,2h12c2,0 3,-1 4,-2l4,-4c1,-1 2,-2 4,-2h92c2.20914,0 4,1.79086 4,4v24c0,2.20914 -1.79086,4 -4,4h-92c-2,0 -3,1 -4,2l-4,4c-1,1 -2,2 -4,2h-12c-2,0 -3,-1 -4,-2l-4,-4c-1,-1 -2,-2 -4,-2h-8c-2.20914,0 -4,1.79086 -4,4v16c0,2.20914 1.79086,4 4,4h8c2,0 3,1 4,2l4,4c1,1 2,2 4,2h12c2,0 3,-1 4,-2l4,-4c1,-1 2,-2 4,-2h92c2.20914,0 4,1.79086 4,4v24c0,2.20914 -1.79086,4 -4,4h-108c-2,0 -3,1 -4,2l-4,4c-1,1 -2,2 -4,2h-12c-2,0 -3,-1 -4,-2l-4,-4c-1,-1 -2,-2 -4,-2h-8c-2.20914,0 -4,-1.79086 -4,-4z" fill="#ffab19" stroke="#cf8b17"/><text transform="translate(169.5,132.7)" font-size="16" xml:space="preserve" fill="#ffffff" fill-rule="nonzero" stroke="none" stroke-width="1" stroke-linecap="butt" stroke-linejoin="miter" stroke-miterlimit="10" stroke-dasharray="" stroke-dashoffset="0" font-family="Helevetica Neue, Helvetica, sans-serif" font-weight="500" text-anchor="start" style="mix-blend-mode: normal"><tspan x="0" dy="0">if</tspan></text><path d="M225.5,104.5h16l16,16l-16,16h-16l-16,-16z" fill="#cf8b17" stroke="none"/><text transform="translate(265.5,132.7)" font-size="16" xml:space="preserve" fill="#ffffff" fill-rule="nonzero" stroke="none" stroke-width="1" stroke-linecap="butt" stroke-linejoin="miter" stroke-miterlimit="10" stroke-dasharray="" stroke-dashoffset="0" font-family="Helevetica Neue, Helvetica, sans-serif" font-weight="500" text-anchor="start" style="mix-blend-mode: normal"><tspan x="0" dy="0">then</tspan></text><text transform="translate(169.5,196.7)" font-size="16" xml:space="preserve" fill="#ffffff" fill-rule="nonzero" stroke="none" stroke-width="1" stroke-linecap="butt" stroke-linejoin="miter" stroke-miterlimit="10" stroke-dasharray="" stroke-dashoffset="0" font-family="Helevetica Neue, Helvetica, sans-serif" font-weight="500" text-anchor="start" style="mix-blend-mode: normal"><tspan x="0" dy="0">else</tspan></text></g></g></svg>