<svg width="100" height="100" viewBox="0 0 100 100" fill="none" xmlns="http://www.w3.org/2000/svg">
<path d="M85.9425 10.9375H14.0675C12.339 10.9375 10.9425 12.334 10.9425 14.0625V85.9375C10.9425 87.666 12.339 89.0625 14.0675 89.0625H85.9425C87.671 89.0625 89.0675 87.666 89.0675 85.9375V14.0625C89.0675 12.334 87.671 10.9375 85.9425 10.9375ZM34.1163 77.5098H22.5245V40.2246H34.1163V77.5098ZM28.3253 35.127C26.9965 35.127 25.6975 34.7329 24.5926 33.9946C23.4877 33.2564 22.6265 32.207 22.118 30.9794C21.6095 29.7517 21.4764 28.4008 21.7357 27.0974C21.9949 25.7941 22.6348 24.597 23.5744 23.6573C24.5141 22.7177 25.7112 22.0778 27.0146 21.8186C28.3179 21.5593 29.6688 21.6924 30.8965 22.2009C32.1242 22.7094 33.1735 23.5706 33.9118 24.6755C34.65 25.7804 35.0441 27.0794 35.0441 28.4082C35.0343 32.1191 32.0265 35.127 28.3253 35.127ZM77.5148 77.5098H65.9327V59.375C65.9327 55.0488 65.8546 49.4922 59.9074 49.4922C53.882 49.4922 52.9542 54.1992 52.9542 59.0625V77.5098H41.382V40.2246H52.4952V45.3223H52.6515C54.1945 42.3926 57.9738 39.2969 63.6183 39.2969C75.3566 39.2969 77.5148 47.0215 77.5148 57.0606V77.5098Z" fill="#EF2779"/>
</svg>
